# xmcd
#
# Track frame offsets:
#        150
#        14461
#        27755
#        41991
#        58533
#        78728
#        89676
#        102379
#        115173
#        128474
#        146116
#        165332
#
# Disc length: 2317 seconds
#
# Revision: 0
# Processed by: cddbd v1.5.1PL0 Copyright (c) Steve Scherf et al.
# Submitted via: ExactAudioCopy v0.95a5
#
DISCID=9e090b0c
DTITLE=WiTH MY FOOT - 5
DYEAR=2004
DGENRE=
TTITLE0=Welcome to the wonderland
TTITLE1=Tell me,tell me
TTITLE2=Song 4 U
TTITLE3=love/hate
TTITLE4=with or without you
TTITLE5=delight
TTITLE6=Mr.heartbreak
TTITLE7=the wind that I hate
TTITLE8=head
TTITLE9=Superlonely
TTITLE10=Make this moment last
TTITLE11=Bonus Track
EXTD=
EXTT0=
EXTT1=
EXTT2=
EXTT3=
EXTT4=
EXTT5=
EXTT6=
EXTT7=
EXTT8=
EXTT9=
EXTT10=
EXTT11=
PLAYORDER=
